<?xml version="1.0" encoding="UTF-8" standalone="no"?>
<!-- Created with Inkscape (http://www.inkscape.org/) -->

<svg
   width="157mm"
   height="73mm"
   viewBox="0 0 157 73"
   version="1.1"
   id="svg2151"
   inkscape:version="1.1.1 (3bf5ae0d25, 2021-09-20, custom)"
   sodipodi:docname="fsfe_women_logo.svg"
   inkscape:export-filename="/home/marlene/FSFE/FSFEWomen/finallogo/fsfe_women_logo_font.png"
   inkscape:export-xdpi="321.50137"
   inkscape:export-ydpi="321.50137"
   xmlns:inkscape="http://www.inkscape.org/namespaces/inkscape"
   xmlns:sodipodi="http://sodipodi.sourceforge.net/DTD/sodipodi-0.dtd"
   xmlns="http://www.w3.org/2000/svg"
   xmlns:svg="http://www.w3.org/2000/svg">
  <sodipodi:namedview
     id="namedview2153"
     pagecolor="#ffffff"
     bordercolor="#666666"
     borderopacity="1.0"
     inkscape:pageshadow="2"
     inkscape:pageopacity="0.0"
     inkscape:pagecheckerboard="0"
     inkscape:document-units="mm"
     showgrid="false"
     inkscape:zoom="1.5823796"
     inkscape:cx="161.46568"
     inkscape:cy="179.47653"
     inkscape:window-width="2560"
     inkscape:window-height="1403"
     inkscape:window-x="0"
     inkscape:window-y="0"
     inkscape:window-maximized="1"
     inkscape:current-layer="layer1" />
  <defs
     id="defs2148">
    <rect
       x="14588.744"
       y="1800.321"
       width="295.39911"
       height="115.82786"
       id="rect90460-7-5-3-1-9-7-6-2-4-2-7-4-3" />
  </defs>
  <g
     inkscape:label="Layer 1"
     inkscape:groupmode="layer"
     id="layer1">
    <g
       transform="matrix(0.19474106,0,0,0.19474106,3.0756034,5.2055031)"
       id="g2886-6-3-8-5-8-4-45-6-0-7-2-7-9-7"
       style="fill:none">
      <path
         d="m 182.238,121.084 c 0,0 -0.085,18.031 -0.085,18.031 0,0 23.358,0 23.358,0 4.063,0 7.357,3.294 7.357,7.357 0,4.063 -3.294,7.357 -7.357,7.357 0,0 -23.358,0 -23.358,0 0,0 0,91.975 0,91.975 0,4.515 -3.66,8.174 -8.174,8.174 -4.514,0 -8.174,-3.66 -8.174,-8.174 0,0 0,-91.975 0,-91.975 0,0 -14.164,0 -14.164,0 -4.063,0 -7.357,-3.294 -7.357,-7.357 0,-4.063 3.294,-7.357 7.357,-7.357 0,0 13.962,0 13.962,0 0,0 0,-16.11 0,-16.11 0,-19.822 12.463,-29.833 31.265,-29.833 0,0 8.644,0 8.644,0 4.063,0 7.357,3.294 7.357,7.357 0,4.063 -3.294,7.357 -7.357,7.357 0,0 -8.644,0 -8.644,0 -11.105,0.001 -14.63,3.987 -14.63,13.198 z"
         id="path2888-2-6-4-3-7-7-2-6-23-4-6-64-3-0"
         inkscape:connector-curvature="0"
         style="fill:#202d79" />
    </g>
    <g
       transform="matrix(0.19474106,0,0,0.19474106,3.0756034,5.2055031)"
       id="g2890-6-1-3-5-9-8-54-4-7-4-1-3-6-9"
       style="fill:none">
      <path
         d="m 355.087,121.084 c 0,0 -0.085,18.031 -0.085,18.031 0,0 23.358,0 23.358,0 4.063,0 7.357,3.294 7.357,7.357 0,4.063 -3.294,7.357 -7.357,7.357 0,0 -23.358,0 -23.358,0 0,0 0,91.975 0,91.975 0,4.515 -3.66,8.174 -8.174,8.174 -4.514,0 -8.174,-3.66 -8.174,-8.174 0,0 0,-91.975 0,-91.975 0,0 -14.165,0 -14.165,0 -4.063,0 -7.357,-3.294 -7.357,-7.357 0,-4.063 3.294,-7.357 7.357,-7.357 0,0 13.962,0 13.962,0 0,0 0,-16.11 0,-16.11 0,-19.822 12.463,-29.833 31.265,-29.833 0,0 8.644,0 8.644,0 4.063,0 7.357,3.294 7.357,7.357 0,4.063 -3.294,7.357 -7.357,7.357 0,0 -8.644,0 -8.644,0 -11.103,0.001 -14.629,3.987 -14.629,13.198 z"
         id="path2892-1-2-1-6-2-4-7-9-5-3-0-0-8-3"
         inkscape:connector-curvature="0"
         style="fill:#202d79" />
    </g>
    <g
       transform="matrix(0.19474106,0,0,0.19474106,3.0756034,5.2055031)"
       id="g2894-8-9-4-2-0-5-4-5-92-0-6-3-0-6"
       style="fill:none;stroke-width:1.00086;stroke-miterlimit:4;stroke-dasharray:none">
      <path
         d="m 402.657,187.03 c 0,0 66.916,0 66.916,0 -2.767,-22.476 -15.458,-32.213 -31.211,-32.213 -19.651,0 -32.445,12.228 -35.705,32.213 z m 35.995,51.454 c 17.733,0 25.347,-9.427 28.229,-13.146 0,0 3.535,-4.626 5.499,-5.205 1.793,-0.52 3.782,-0.369 5.56,0.577 3.228,1.716 4.673,5.471 3.593,8.833 -0.468,1.793 -1.401,4.061 -2.95,6.524 -5.313,8.034 -17.115,17.804 -40.222,17.804 -31.579,0 -51.811,-20.318 -51.811,-55.31 0,-30.331 15.947,-59.032 51.811,-59.032 27.191,0 44.701,19.157 46.838,50.121 0,11.645 -4.845,12.094 -17.925,12.094 0,0 -65.328,0 -65.328,0 1.495,33.113 24.433,36.74 36.706,36.74 z"
         id="path2896-7-3-9-9-2-0-43-0-2-7-1-0-2-0"
         inkscape:connector-curvature="0"
         style="fill:#202d79;stroke-width:1.00086;stroke-miterlimit:4;stroke-dasharray:none" />
    </g>
    <g
       transform="matrix(0.19474106,0,0,0.19474106,3.0756034,5.2055031)"
       id="g2898-9-1-2-1-3-3-0-4-8-8-5-9-1-6"
       style="fill:none">
      <path
         d="m 221.995,172.263 c 0,-17.939 15.942,-32.083 41.568,-32.083 0,0 0.614,0.002 0.614,0.002 22.041,-0.007 33.241,9.637 38.283,17.567 1.47,2.431 2.356,4.67 2.8,6.44 1.025,3.318 -0.347,7.025 -3.41,8.719 -1.688,0.934 -3.576,1.083 -5.277,0.57 -1.864,-0.571 -5.219,-5.138 -5.219,-5.138 -1.978,-2.653 -6.306,-8.254 -14.907,-11.153 -3.725,-1.182 -7.918,-1.815 -12.884,-1.815 -15.942,0 -25.426,6.519 -25.426,16.487 0,7.143 5.046,12.913 13.723,14.729 0,0 27.439,5.85 27.439,5.85 14.933,3.229 28.049,10.949 28.049,28.655 0,18.78 -16.343,32.765 -42.978,32.765 0,0 -1.164,0.011 -1.164,0.011 -23.107,0 -34.909,-9.77 -40.222,-17.804 -1.549,-2.463 -2.483,-4.731 -2.95,-6.524 -1.08,-3.362 0.365,-7.117 3.593,-8.833 1.778,-0.945 3.768,-1.096 5.561,-0.577 1.964,0.579 5.499,5.205 5.499,5.205 2.098,2.706 6.703,8.436 15.888,11.354 4.051,1.286 8.664,1.955 13.795,1.955 17.756,0 26.635,-7.081 26.635,-16.949 0,-6.758 -5.046,-12.51 -13.319,-14.326 0,0 -28.249,-5.85 -28.249,-5.85 -14.933,-3.028 -27.442,-11.989 -27.442,-29.257 z"
         id="path2900-2-9-0-2-7-6-78-8-9-68-9-2-0-2"
         inkscape:connector-curvature="0"
         style="fill:#202d79" />
    </g>
    <g
       transform="matrix(0.19474106,0,0,0.19474106,-0.02127954,0.29226213)"
       id="g2870-3-8-6-7-5-1-6-7-7-84-4-5-5-6"
       style="fill:none">
      <path
         d="m 2.189,84.694 c 0.005,-2.452 0.996,-4.673 2.595,-6.282 1.599,-1.609 3.807,-2.607 6.243,-2.612 0,0 30.84,8.801 30.84,8.801 0,0 30.873,-8.915 30.873,-8.915 2.436,-0.004 4.639,0.985 6.233,2.589 1.594,1.604 2.577,3.821 2.572,6.272 0,0 -8.859,31.069 -8.859,31.069 0,0 8.745,31.037 8.745,31.037 -0.004,2.451 -0.996,4.672 -2.595,6.282 -1.599,1.61 -3.806,2.607 -6.242,2.612 0,0 -30.841,-8.801 -30.841,-8.801 0,0 -30.873,8.915 -30.873,8.915 -2.436,0.005 -4.64,-0.985 -6.233,-2.588 -1.593,-1.604 -2.577,-3.821 -2.572,-6.273 0,0 8.859,-31.069 8.859,-31.069 0,0 -8.745,-31.037 -8.745,-31.037 z"
         id="path2872-7-4-8-0-9-0-8-1-3-3-9-4-1-1"
         inkscape:connector-curvature="0"
         style="fill:#4ad2f0" />
    </g>
    <g
       transform="matrix(0.19474106,0,0,0.19474106,-0.02127954,0.29226213)"
       id="g2874-5-5-9-9-2-6-84-7-6-1-0-0-1-8"
       style="fill:none">
      <path
         d="m 63.727,9.234 c 1.131,-2.931 3.337,-5.132 5.989,-6.323 2.652,-1.191 5.751,-1.371 8.667,-0.257 0,0 32.85,24.689 32.85,24.689 0,0 41.024,3.513 41.024,3.513 2.916,1.113 5.097,3.309 6.267,5.959 1.17,2.65 1.328,5.754 0.197,8.685 0,0 -24.863,33.098 -24.863,33.098 0,0 -3.791,41.142 -3.791,41.142 -1.131,2.93 -3.337,5.132 -5.989,6.323 -2.652,1.191 -5.75,1.371 -8.667,0.258 0,0 -32.85,-24.69 -32.85,-24.69 0,0 -41.024,-3.513 -41.024,-3.513 -2.916,-1.113 -5.098,-3.309 -6.267,-5.959 -1.17,-2.65 -1.327,-5.754 -0.196,-8.685 0,0 24.863,-33.097 24.863,-33.097 0,0 3.79,-41.143 3.79,-41.143 z"
         id="path2876-9-0-2-3-2-3-3-2-1-4-9-59-0-7"
         inkscape:connector-curvature="0"
         style="fill:#d0f400" />
    </g>
    <g
       transform="matrix(0.19474106,0,0,0.19474106,-0.02127954,0.29226213)"
       id="g2878-2-3-6-6-8-2-1-7-2-9-1-4-8-9"
       style="fill:none">
      <path
         d="m 65.827,175.084 c -0.51,-1.335 -0.434,-2.752 0.1,-3.962 0.534,-1.21 1.527,-2.214 2.853,-2.726 0,0 18.628,-1.653 18.628,-1.653 0,0 14.944,-11.305 14.944,-11.305 1.325,-0.512 2.731,-0.433 3.934,0.107 1.203,0.54 2.201,1.542 2.711,2.877 0,0 1.67,18.765 1.67,18.765 0,0 11.247,15.068 11.247,15.068 0.51,1.335 0.434,2.751 -0.1,3.962 -0.534,1.211 -1.527,2.215 -2.852,2.727 0,0 -18.628,1.653 -18.628,1.653 0,0 -14.944,11.305 -14.944,11.305 -1.325,0.511 -2.732,0.433 -3.934,-0.107 -1.202,-0.54 -2.201,-1.542 -2.711,-2.877 0,0 -1.67,-18.764 -1.67,-18.764 0,0 -11.248,-15.07 -11.248,-15.07 z"
         id="path2880-2-6-6-0-9-0-4-2-93-2-7-6-5-2"
         inkscape:connector-curvature="0"
         style="fill:#3394ce" />
    </g>
    <g
       transform="matrix(0.19474106,0,0,0.19474106,-0.02127954,0.29226213)"
       id="g2882-8-1-4-6-7-6-9-2-19-06-7-9-0-0"
       style="fill:none">
      <path
         d="m 35.575,82.806 6.292,1.795 c 0,0 30.873,-8.915 30.873,-8.915 2.436,-0.004 4.639,0.985 6.233,2.589 1.594,1.604 2.577,3.821 2.572,6.272 0,0 -4.73,16.59 -4.73,16.59 0,0 -35.278,-3.021 -35.278,-3.021 -2.916,-1.113 -5.098,-3.309 -6.267,-5.959 -1.17,-2.65 -1.327,-5.754 -0.196,-8.685 -10e-4,0.002 0.501,-0.666 0.501,-0.666 z"
         id="path2884-9-0-9-2-3-1-2-6-4-8-1-2-6-2"
         inkscape:connector-curvature="0"
         style="fill:#6bb340" />
    </g>
    <text
       xml:space="preserve"
       transform="matrix(0.48985659,0,0,0.48985659,-7112.118,-829.01923)"
       id="text90458-8-0-6-6-5-0-1-7-9-1-2-4-3"
       style="font-style:normal;font-variant:normal;font-weight:300;font-stretch:normal;font-size:40px;line-height:1.25;font-family:Roboto;-inkscape-font-specification:'Roboto Light';white-space:pre;shape-inside:url(#rect90460-7-5-3-1-9-7-6-2-4-2-7-4-3);fill:#202d79;fill-opacity:1;stroke:none"><tspan
         x="14588.744"
         y="1837.1011"
         id="tspan1208">women</tspan></text>
    <g
       id="g1106"
       transform="translate(3.4801935,5.0538469)">
      <circle
         style="display:inline;fill:#202d79;fill-opacity:1;stroke:#202d79;stroke-width:1.46212;stroke-miterlimit:4;stroke-dasharray:none;stroke-opacity:1"
         id="circle2110-8-5-6-3-8-0-5-8-7-6-3-8-37-7-3-8-7-5"
         cx="126.90517"
         cy="42.870361"
         r="23.524487" />
      <g
         id="g833"
         transform="matrix(0.99647492,0,0,0.99647492,-3.8032782,-5.4010288)">
        <path
           id="circle2110-5-6-2-2-6-6-8-7-20-5-9-6-6-8-9-7-0-1-9-8-0-6-7-3"
           style="display:inline;fill:#37abc8;fill-opacity:0;stroke:#d0f400;stroke-width:2.11221;stroke-linecap:round;stroke-linejoin:miter;stroke-miterlimit:4;stroke-dasharray:none;stroke-opacity:1"
           d="m 135.04932,58.033354 c 1.90276,-6.4e-5 3.44543,1.542475 3.44543,3.445307 0,1.902801 -1.54267,3.44534 -3.44543,3.445308 v 0 c -4.98112,9.5e-5 -9.01974,-4.037764 -9.01974,-9.018751 0,-4.98105 4.03862,-9.018909 9.01974,-9.018846"
           sodipodi:nodetypes="csccsc" />
        <path
           style="fill:#d0f400;fill-opacity:1;stroke:none;stroke-width:2.11221;stroke-linecap:round;stroke-miterlimit:4;stroke-dasharray:none;stroke-dashoffset:34.0819;stroke-opacity:1;paint-order:stroke fill markers"
           d="m 142.83695,53.118799 c -1.12286,-1.086535 -1.80401,-1.681055 -2.68109,-2.339276 -3.35557,-2.520185 -7.23636,-4.063549 -11.48489,-4.567725 -1.41024,-0.167668 -4.22661,-0.141946 -5.79817,0.0524 -1.58998,0.196882 -3.4105,0.647614 -5.17514,1.281543 -0.48966,0.175606 -0.90883,0.319361 -0.93106,0.319361 -0.13972,0 -0.0857,-1.886447 0.0762,-2.988509 0.96218,-6.335218 5.69212,-11.163939 12.02505,-12.276513 1.29211,-0.226732 3.4159,-0.225144 4.69658,0 4.64642,0.830144 8.44656,3.627297 10.56812,7.777696 0.71767,1.406309 1.16446,2.809855 1.41311,4.438799 0.12067,0.799468 0.14924,2.906391 0.0476,3.785787 -0.1429,1.232925 -0.43822,2.428983 -0.8739,3.528061 -0.21594,0.550476 -0.86089,1.905469 -0.90249,1.905469 0,0 -0.45536,-0.414405 -0.97837,-0.921091 z"
           id="path4812-6-2-1-3-5-2-5-6-7-2-4-7-0-5-5" />
      </g>
      <path
         d="m 111.87046,17.739216 c 0.0896,-0.232169 0.26433,-0.406513 0.4744,-0.500854 0.21006,-0.09434 0.45555,-0.108599 0.68652,-0.02036 0,0 2.60209,1.955651 2.60209,1.955651 0,0 3.24958,0.278269 3.24958,0.278269 0.23098,0.08816 0.40374,0.262111 0.49641,0.472022 0.0927,0.20991 0.1052,0.455782 0.0157,0.687951 0,0 -1.96944,2.621739 -1.96944,2.621739 0,0 -0.30028,3.258917 -0.30028,3.258917 -0.0896,0.232089 -0.26433,0.406513 -0.47441,0.500854 -0.21006,0.09434 -0.45546,0.108599 -0.68652,0.02044 0,0 -2.60209,-1.95573 -2.60209,-1.95573 0,0 -3.24958,-0.278269 -3.24958,-0.278269 -0.23097,-0.08816 -0.40381,-0.262111 -0.49641,-0.472021 -0.0927,-0.209911 -0.10512,-0.455783 -0.0155,-0.687952 0,0 1.96944,-2.621661 1.96944,-2.621661 0,0 0.3002,-3.258995 0.3002,-3.258995 z"
         id="path2876-9-0-2-3-2-3-5-9-6-7-8-0-6-8-8-2"
         inkscape:connector-curvature="0"
         style="fill:#d0f400;stroke-width:0.0792114" />
      <path
         d="m 128.74801,15.919758 c 2.4e-4,-0.259791 0.11075,-0.49683 0.27847,-0.667957 0.17086,-0.171189 0.40408,-0.27751 0.66387,-0.27751 0,0 3.28013,0.93569 3.28013,0.93569 0,0 3.28203,-0.947937 3.28203,-0.947937 0.26265,-4.79e-4 0.48889,0.105373 0.66293,0.276246 0.17087,0.171189 0.27214,0.406646 0.27214,0.666912 0,0 -0.94361,3.303584 -0.94361,3.303584 0,0 0.93063,3.300103 0.93063,3.300103 -7.2e-4,0.261056 -0.10442,0.496861 -0.27846,0.66802 -0.17087,0.170873 -0.40409,0.276878 -0.66388,0.276878 0,0 -3.28013,-0.93569 -3.28013,-0.93569 0,0 -3.2814,0.947936 -3.2814,0.947936 -0.26264,4.55e-4 -0.48889,-0.104422 -0.66356,-0.275612 -0.17087,-0.170874 -0.27213,-0.406616 -0.27213,-0.667071 0,0 0.94265,-3.303521 0.94265,-3.303521 0,0 -0.92968,-3.300134 -0.92968,-3.300134 z"
         id="path2872-7-4-8-0-9-0-8-12-1-2-9-3-8-8-1-9"
         inkscape:connector-curvature="0"
         style="fill:#4ad2f0;stroke-width:0.106331" />
      <g
         transform="matrix(0.17280792,0,0,0.17280792,131.62135,-0.49956176)"
         id="g2878-2-3-6-6-8-2-1-70-8-2-7-6-8-8-2-1"
         style="fill:none">
        <path
           d="m 65.827,175.084 c -0.51,-1.335 -0.434,-2.752 0.1,-3.962 0.534,-1.21 1.527,-2.214 2.853,-2.726 0,0 18.628,-1.653 18.628,-1.653 0,0 14.944,-11.305 14.944,-11.305 1.325,-0.512 2.731,-0.433 3.934,0.107 1.203,0.54 2.201,1.542 2.711,2.877 0,0 1.67,18.765 1.67,18.765 0,0 11.247,15.068 11.247,15.068 0.51,1.335 0.434,2.751 -0.1,3.962 -0.534,1.211 -1.527,2.215 -2.852,2.727 0,0 -18.628,1.653 -18.628,1.653 0,0 -14.944,11.305 -14.944,11.305 -1.325,0.511 -2.732,0.433 -3.934,-0.107 -1.202,-0.54 -2.201,-1.542 -2.711,-2.877 0,0 -1.67,-18.764 -1.67,-18.764 0,0 -11.248,-15.07 -11.248,-15.07 z"
           id="path2880-2-6-6-0-9-0-4-9-7-6-3-1-4-9-8-2"
           inkscape:connector-curvature="0"
           style="fill:#3394ce" />
      </g>
    </g>
  </g>
</svg>
